<svg height="512" viewBox="0 0 128 128" width="512" xmlns="http://www.w3.org/2000/svg"><path d="m119.37 23.414h-58.042a5.324 5.324 0 0 1 -4.377-2.292l-2.581-3.722a7.459 7.459 0 0 0 -6.132-3.213h-35.672a5 5 0 0 0 -5 5v93.829a5 5 0 0 0 5 5h106.8a5 5 0 0 0 5-5v-84.6a5 5 0 0 0 -4.996-5.002z" fill="#e6e7e8"/><path d="m4.63 33h114.675a0 0 0 0 1 0 0v75.687a4 4 0 0 1 -4 4h-106.675a4 4 0 0 1 -4-4v-75.687a0 0 0 0 1 0 0z" fill="#d4fbff"/><path d="m82.476 72.094h-4.384v-.329a2.967 2.967 0 0 0 -2.967-2.965h-32.48a2.967 2.967 0 0 0 -2.967 2.967v9.017a17.493 17.493 0 0 0 13.423 17h11.569a17.534 17.534 0 0 0 12.307-10.873h5.5a7.409 7.409 0 1 0 0-14.817zm0 10.426h-4.476c.057-.572.093-1.15.093-1.738v-4.3h4.384a3.018 3.018 0 1 1 0 6.036z" fill="#ffd7e5"/><path d="m34.051 97.785h49.669a0 0 0 0 1 0 0v.572a5.863 5.863 0 0 1 -5.863 5.863h-37.943a5.863 5.863 0 0 1 -5.863-5.863v-.572a0 0 0 0 1 0 0z" fill="#fa759e"/><path d="m115.305 109.687h-106.675a4 4 0 0 1 -4-4v3a4 4 0 0 0 4 4h106.675a4 4 0 0 0 4-4v-3a4 4 0 0 1 -4 4z" fill="#fff"/><path d="m52.074 17.466-2.574-3.725a6.391 6.391 0 0 0 -5.254-2.753h-35.616a4 4 0 0 0 -4 4v18.012h114.675v-8.781a4 4 0 0 0 -4-4h-57.977a6.39 6.39 0 0 1 -5.254-2.753z" fill="#6dc9f7"/><g fill="#3a2c60"><path d="m82.477 71.094h-3.453a3.964 3.964 0 0 0 -3.9-3.3h-32.478a3.971 3.971 0 0 0 -3.967 3.967v9.017a18.5 18.5 0 0 0 9.255 16h-13.883a1 1 0 0 0 -1 1v.572a6.87 6.87 0 0 0 6.863 6.863h37.943a6.87 6.87 0 0 0 6.863-6.863v-.572a1 1 0 0 0 -1-1h-13.884a18.592 18.592 0 0 0 7.815-8.874h4.826a8.409 8.409 0 0 0 0-16.817zm-3.385 6.39h3.385a2.019 2.019 0 0 1 0 4.037h-3.413c.01-.246.028-.49.028-.739zm-1.235 25.736h-37.943a4.871 4.871 0 0 1 -4.845-4.435h47.631a4.869 4.869 0 0 1 -4.843 4.435zm-13.318-6.435h-11.307a16.514 16.514 0 0 1 -12.553-16v-9.02a1.969 1.969 0 0 1 1.967-1.965h32.479a1.969 1.969 0 0 1 1.967 1.967v9.017a16.515 16.515 0 0 1 -12.553 16.001zm17.938-10.874h-4.119a18.058 18.058 0 0 0 .529-2.39h3.59a4.019 4.019 0 0 0 0-8.037h-3.385v-2.39h3.385a6.409 6.409 0 0 1 0 12.817z"/><path d="m57.5 49.26a3 3 0 0 0 3.609-.209 1 1 0 0 0 -1.293-1.526 1.018 1.018 0 0 1 -1.192.081 3.27 3.27 0 0 1 -1.132-2.528 2.874 2.874 0 0 1 1.127-2.454 4.152 4.152 0 0 1 3.5-.659 4.383 4.383 0 0 1 2.936 2.346c1.685 3.528-.535 5.822-3.107 8.478a16 16 0 0 0 -3.46 4.511 12.608 12.608 0 0 0 -.3 7.709 1 1 0 0 0 .974.779 1.055 1.055 0 0 0 .222-.024 1 1 0 0 0 .755-1.2 10.686 10.686 0 0 1 .19-6.489 14.446 14.446 0 0 1 3.057-3.9c2.566-2.651 5.76-5.949 3.474-10.731a6.373 6.373 0 0 0 -4.26-3.421 6.145 6.145 0 0 0 -5.18 1 4.861 4.861 0 0 0 -1.927 3.986 5.217 5.217 0 0 0 2.007 4.251z"/><path d="m49.017 59.325a8.2 8.2 0 0 1 1.993 1.89 5.862 5.862 0 0 1 .592 3.5 1 1 0 0 0 .917 1.077q.041 0 .081 0a1 1 0 0 0 1-.92 7.782 7.782 0 0 0 -.872-4.687 9.616 9.616 0 0 0 -2.483-2.441c-1.835-1.421-2.93-2.385-2.363-4.2a2.154 2.154 0 0 1 1.261-1.344 2.018 2.018 0 0 1 1.729.07 1.26 1.26 0 0 1 .648 1.037 1.517 1.517 0 0 1 -.317 1.178 1 1 0 0 0 1.348 1.478 3.446 3.446 0 0 0 .937-3.008 3.237 3.237 0 0 0 -1.658-2.441 4.013 4.013 0 0 0 -3.437-.168 4.14 4.14 0 0 0 -2.423 2.6c-1.012 3.236 1.33 5.054 3.047 6.379z"/><path d="m115.305 19.219h-57.977a5.391 5.391 0 0 1 -4.428-2.319l-2.578-3.726a7.4 7.4 0 0 0 -6.082-3.186h-35.61a5.006 5.006 0 0 0 -5 5v93.7a5.006 5.006 0 0 0 5 5h106.675a5.006 5.006 0 0 0 5-5v-84.469a5.006 5.006 0 0 0 -5-5zm0 92.468h-106.675a3 3 0 0 1 -3-3v-74.687h13.1a1 1 0 0 0 0-2h-13.1v-17.012a3 3 0 0 1 3-3h35.61a5.393 5.393 0 0 1 4.433 2.322l2.578 3.725a7.394 7.394 0 0 0 6.077 3.184h57.977a3 3 0 0 1 3 3v7.781h-79.461a1 1 0 1 0 0 2h79.461v74.687a3 3 0 0 1 -3 3z"/><path d="m35.609 33a1 1 0 0 0 -1-1h-11.641a1 1 0 0 0 0 2h11.641a1 1 0 0 0 1-1z"/></g><circle cx="40.249" cy="22.416" fill="#fff" r="3.257"/><circle cx="28.417" cy="22.416" fill="#d4fbff" r="3.257"/><circle cx="16.586" cy="22.416" fill="#fa759e" r="3.257"/></svg>