<?xml version="1.0" encoding="iso-8859-1"?>
<svg xmlns="http://www.w3.org/2000/svg" xmlns:xlink="http://www.w3.org/1999/xlink" version="1.1" viewBox="0 0 137.145 137.145" enable-background="new 0 0 137.145 137.145" width="512px" height="512px">
  <g>
    <g>
      <path d="M109.715,0H27.429C12.281,0,0,12.28,0,27.429v82.286c0,15.149,12.28,27.429,27.429,27.429h82.286    c15.149,0,27.429-12.28,27.429-27.429V27.429C137.144,12.28,124.864,0,109.715,0z M123.43,102.859    c0,11.361-9.21,20.572-20.572,20.572H34.286c-11.361,0-20.571-9.211-20.571-20.572V34.286c0-11.361,9.21-20.572,20.571-20.572    h68.572c11.362,0,20.572,9.211,20.572,20.572V102.859z" fill="#282830"/>
    </g>
  </g>
  <g>
    <g>
      <path d="M68.572,41.144l20.572,20.571h20.571L68.572,20.572L27.428,61.715H48L68.572,41.144z M68.572,96.001L48,75.429H27.428    l41.143,41.144l41.143-41.144H89.143L68.572,96.001z" fill="#282830"/>
    </g>
  </g>
</svg>
